<!-- Generated by IcoMoon.io -->
<svg version="1.1" xmlns="http://www.w3.org/2000/svg" width="32" height="32" viewBox="0 0 32 32">
<title>pay_cash</title>
<path d="M15.873 6.843c2.753 0 5.219 1.233 6.875 3.176l0.011 0.013c0-0.183 0-0.367 0-0.55 0-3.834-3.108-6.942-6.942-6.942s-6.942 3.108-6.942 6.942v0c0 0.183 0 0.367 0 0.55 1.667-1.957 4.133-3.189 6.887-3.189 0.039 0 0.078 0 0.117 0.001l-0.006-0zM15.873 13.136c2.753 0 5.219 1.233 6.875 3.176l0.011 0.013c0-0.183 0-0.367 0-0.55 0-3.834-3.108-6.942-6.942-6.942s-6.942 3.108-6.942 6.942v0c0 0.183 0 0.367 0 0.55 1.667-1.957 4.133-3.189 6.887-3.189 0.039 0 0.078 0 0.117 0.001l-0.006-0zM22.815 22.222c0 3.834-3.108 6.942-6.942 6.942s-6.942-3.108-6.942-6.942c0-3.834 3.108-6.942 6.942-6.942s6.942 3.108 6.942 6.942z"></path>
</svg>
